<?xml version="1.0" encoding="UTF-8"?>
<svg version="1.1" xmlns="http://www.w3.org/2000/svg" width="1080" height="1080">
<path d="M0 0 C356.4 0 712.8 0 1080 0 C1080 356.4 1080 712.8 1080 1080 C723.6 1080 367.2 1080 0 1080 C0 723.6 0 367.2 0 0 Z " fill="#FD1602" transform="translate(0,0)"/>
<path d="M0 0 C2.48063307 0.01078643 4.96054967 -0.00001798 7.44116211 -0.01269531 C52.27202499 -0.05507769 99.27482815 21.73870813 131.59545898 52.76074219 C150.97346614 73.27863211 163.77784246 99.16706572 173.78295898 125.26074219 C174.08041016 126.03562988 174.37786133 126.81051758 174.68432617 127.60888672 C183.68012493 151.56332068 187.88115961 176.54206968 190.43920898 201.8762207 C190.6409848 203.8628813 190.85442927 205.84852942 191.09545898 207.83081055 C192.06220615 216.00759256 192.02677152 224.2258415 192.03295898 232.44824219 C192.03363373 233.25765259 192.03430847 234.06706299 192.03500366 234.90100098 C192.00240242 259.75716123 189.43475395 284.02092434 183.78295898 308.26074219 C183.62214844 308.96473145 183.46133789 309.6687207 183.2956543 310.39404297 C182.28628272 314.73344948 181.09137465 319.00370074 179.78295898 323.26074219 C179.5217627 324.11394043 179.26056641 324.96713867 178.99145508 325.84619141 C167.13675716 364.02866129 148.83982236 399.91313719 124.19897461 431.44775391 C122.80474437 433.23284938 121.42552854 435.02870036 120.04858398 436.82714844 C113.29332777 445.59691638 106.11593514 453.97107811 98.78295898 462.26074219 C98.01338867 463.13214844 97.24381836 464.00355469 96.45092773 464.90136719 C84.22657611 478.5998985 71.82934801 492.39878255 57.78295898 504.26074219 C56.93604492 504.99679687 56.08913086 505.73285156 55.21655273 506.49121094 C40.38006703 519.18801299 23.87238947 532.14796067 4.78295898 537.26074219 C3.95924805 537.48632812 3.13553711 537.71191406 2.28686523 537.94433594 C-18.16946829 542.57174368 -40.3726343 539.12255497 -58.21704102 528.26074219 C-61.37880029 526.08998209 -64.30675243 523.75443704 -67.21704102 521.26074219 C-67.79454102 520.82632813 -68.37204102 520.39191406 -68.96704102 519.94433594 C-77.63262012 513.22450029 -83.80300591 503.40261694 -89.21704102 494.01074219 C-89.59070801 493.37410645 -89.964375 492.7374707 -90.34936523 492.08154297 C-95.15303386 483.43671776 -95.55303922 474.8728146 -95.46704102 465.13574219 C-95.46027344 464.0298877 -95.45350586 462.9240332 -95.4465332 461.78466797 C-95.27390168 448.06849131 -93.20266993 435.41331761 -89.21704102 422.26074219 C-89.01626953 421.58736816 -88.81549805 420.91399414 -88.60864258 420.22021484 C-83.67299411 403.89607086 -77.06444487 388.01611317 -68.84204102 373.07324219 C-59.4434763 355.84778611 -52.39422612 337.53453809 -46.21704102 318.94824219 C-45.99147522 318.27108154 -45.76590942 317.5939209 -45.5335083 316.89624023 C-33.49040391 280.51771355 -25.11810197 238.12315325 -43.07055664 202.20532227 C-49.04901582 190.79104332 -56.21071829 180.05857755 -63.21704102 169.26074219 C-91.05913859 126.1775815 -91.05913859 126.1775815 -96.21704102 105.26074219 C-96.44520508 104.35324219 -96.67336914 103.44574219 -96.90844727 102.51074219 C-101.71811936 79.37050161 -97.56502059 58.12005637 -85.37329102 38.25683594 C-74.76955678 22.8230109 -60.14076397 10.18416433 -42.21704102 4.26074219 C-41.35828369 3.93807373 -40.49952637 3.61540527 -39.61474609 3.28295898 C-35.59445174 2.07343305 -31.73902646 1.5653581 -27.57250977 1.15136719 C-26.74389938 1.067276 -25.915289 0.98318481 -25.06156921 0.89654541 C-16.70769833 0.112966 -8.38582529 -0.04318737 0 0 Z " fill="#FAEB01" transform="translate(730.217041015625,333.7392578125)"/>
<path d="M0 0 C1.01046387 0.009104 2.02092773 0.01820801 3.06201172 0.02758789 C19.03407228 0.5151775 31.94676277 8.31739404 43.6875 18.8125 C56.67718111 32.76915489 64.21786928 55.92204883 64.875 74.625 C64.98714844 76.51992188 64.98714844 76.51992188 65.1015625 78.453125 C65.56506053 89.89951117 64.23793022 101.00860998 62.625 112.3125 C62.47136993 113.4075032 62.47136993 113.4075032 62.31463623 114.52462769 C60.11791678 129.96907847 56.8184974 144.95480869 51.625 159.6875 C51.23513916 160.79947754 50.84527832 161.91145508 50.44360352 163.05712891 C41.03215306 189.29938674 23.34323847 218.76111682 -1.125 233.625 C-7.78383654 236.7537269 -14.35202634 236.52706787 -21.25 234.125 C-29.76297642 230.28215171 -35.20500998 223.46506728 -39.05078125 215.078125 C-43.92705081 199.40313485 -38.02284445 183.17253833 -31.07080078 169.12353516 C-20.25616023 146.59928914 -7.62974544 113.87490963 -15.5625 88.6875 C-17.66464714 83.89009992 -20.69289359 79.70005341 -23.75756836 75.47900391 C-31.53226038 64.69418097 -33.38575457 55.28652817 -33.5300293 42.31054688 C-33.55146729 40.86759296 -33.5853997 39.42476396 -33.63256836 37.98242188 C-34.01389444 26.18166881 -32.00982662 16.66411167 -23.8125 7.625 C-16.82244506 1.3456212 -9.16471255 -0.10506825 0 0 Z " fill="#FD1602" transform="translate(781.125,485.375)"/>
<path d="M0 0 C11.82048949 9.98736545 19.86022268 24.63298252 21.28881836 40.13378906 C21.40072976 43.40688607 21.40973467 46.66279224 21.375 49.9375 C21.38660156 51.02740234 21.39820313 52.11730469 21.41015625 53.24023438 C21.35085343 69.87467651 15.88005876 84.86770437 4.17578125 96.88671875 C3.45777344 97.58410156 2.73976563 98.28148437 2 99 C1.43667969 99.58394531 0.87335938 100.16789062 0.29296875 100.76953125 C-8.03272378 108.77110923 -17.97050495 110.71266085 -29.12963867 110.51904297 C-41.2599471 109.97700133 -49.29739153 104.73194155 -57.78515625 96.20703125 C-71.03291214 81.40071584 -75.17300806 62.63557941 -74.19091797 43.23828125 C-72.84133619 27.41607436 -65.29784382 12.92263867 -54 2 C-53.48695313 1.48953125 -52.97390625 0.9790625 -52.4453125 0.453125 C-37.43115233 -13.28864872 -15.6452468 -11.50615489 0 0 Z " fill="#FAEB01" transform="translate(686,216)"/>
<path d="M0 0 C7.321875 -0.0825 14.64375 -0.165 22.1875 -0.25 C24.47067139 -0.28641602 26.75384277 -0.32283203 29.10620117 -0.36035156 C42.06947631 -0.48124009 54.88481505 -0.52019827 65.3515625 8.3125 C72.54742589 15.67888148 73.98107344 24.06184837 74.375 34.0625 C74.18632477 42.73046195 70.84396203 48.94405545 64.9765625 55.2109375 C56.00049638 63.33551908 45.04554697 64.32789141 33.3984375 64.1953125 C32.11610229 64.19229126 32.11610229 64.19229126 30.80786133 64.18920898 C27.66351837 64.17887218 24.51925286 64.1509514 21.375 64.125 C10.794375 64.063125 10.794375 64.063125 0 64 C0 42.88 0 21.76 0 0 Z " fill="#FAE701" transform="translate(412,458)"/>
<path d="M0 0 C11.1065625 -0.12375 11.1065625 -0.12375 22.4375 -0.25 C24.7570874 -0.28641602 27.0766748 -0.32283203 29.46655273 -0.36035156 C31.33055703 -0.37204752 33.19457164 -0.38223719 35.05859375 -0.390625 C36.00577271 -0.41108887 36.95295166 -0.43155273 37.92883301 -0.45263672 C44.35805707 -0.45596835 49.45725507 0.63017392 55 4 C58.5111103 7.59888806 59.86934879 10.26887151 60.25 15.3125 C59.91418156 20.26582206 58.63731365 23.51153304 54.9375 26.875 C53 28 53 28 51 28 C51 28.66 51 29.32 51 30 C51.70125 30.020625 52.4025 30.04125 53.125 30.0625 C56.72982868 31.23798761 58.47203689 32.69887818 60.82421875 35.640625 C63.51919455 41.04848341 62.96833352 47.55105902 61.3671875 53.25390625 C58.98840638 58.21505787 54.9287447 60.22833879 50 62 C44.18367182 64.00649182 39.03697671 64.26554186 32.91015625 64.1953125 C32.07190308 64.19329834 31.2336499 64.19128418 30.36999512 64.18920898 C27.26744031 64.17882081 24.1649641 64.15089875 21.0625 64.125 C14.111875 64.08375 7.16125 64.0425 0 64 C0 42.88 0 21.76 0 0 Z " fill="#FAE901" transform="translate(158,638)"/>
<path d="M0 0 C2.5 1.75 2.5 1.75 4 3 C4 1.35 4 -0.3 4 -2 C10.6 -2 17.2 -2 24 -2 C24.09214424 4.52944341 24.17169024 11.05660459 24.21972656 17.58618164 C24.239764 19.80435863 24.26700173 22.02248332 24.30175781 24.24047852 C24.35062253 27.44039872 24.37304812 30.63961674 24.390625 33.83984375 C24.41127014 34.82145981 24.43191528 35.80307587 24.45318604 36.81443787 C24.45572672 44.72176354 22.72335253 50.7878406 17.5625 56.875 C8.52304556 64.37113295 -1.70024132 64.80367145 -12.96582031 64.19970703 C-20.36918846 63.47287612 -26.95791857 60.42023754 -32 55 C-35 49.60687023 -35 49.60687023 -35 47 C-31.37506666 46.94212216 -27.75025143 46.9064458 -24.125 46.875 C-23.09246094 46.85824219 -22.05992187 46.84148438 -20.99609375 46.82421875 C-19.51689453 46.81455078 -19.51689453 46.81455078 -18.0078125 46.8046875 C-16.64100342 46.78897705 -16.64100342 46.78897705 -15.24658203 46.77294922 C-13 47 -13 47 -11 49 C-6.99505368 49.59532986 -3.21374267 49.47365568 0.5625 48 C2.87460278 44.78316135 2.25501172 41.88892873 2 38 C1.01 38.825 0.02 39.65 -1 40.5 C-7.4099894 44.48767612 -14.78624522 44.0284524 -22 43 C-28.9756986 40.24172781 -32.92632477 35.4188134 -36.07421875 28.7109375 C-38.19180511 22.51007281 -38.17135601 14.66510142 -35.5 8.625 C-32.33255915 3.3234678 -27.64801271 -0.64657128 -22.1875 -3.4375 C-13.86434602 -4.90629188 -7.17143221 -4.70783432 0 0 Z " fill="#FAE801" transform="translate(398,568)"/>
<path d="M0 0 C2.82179118 1.76038349 5.15238127 3.60160002 7.50390625 5.953125 C8.11878906 5.53160156 8.73367188 5.11007812 9.3671875 4.67578125 C10.17542969 4.12792969 10.98367188 3.58007812 11.81640625 3.015625 C13.01716797 2.19771484 13.01716797 2.19771484 14.2421875 1.36328125 C19.33034679 -1.80912894 24.69147777 -1.61858928 30.50390625 -1.046875 C35.84598985 0.58051471 39.48513939 3.19276188 42.50390625 7.953125 C44.66074962 12.23925906 44.76682976 16.17677491 44.69921875 20.87890625 C44.69638885 21.62649704 44.69355896 22.37408783 44.69064331 23.14433289 C44.67950094 25.5182638 44.65440787 27.89180925 44.62890625 30.265625 C44.61886874 31.8808539 44.60974424 33.49608876 44.6015625 35.11132812 C44.58128756 39.05885961 44.542129 43.00556382 44.50390625 46.953125 C37.90390625 46.953125 31.30390625 46.953125 24.50390625 46.953125 C24.44332031 44.89449219 24.38273438 42.83585938 24.3203125 40.71484375 C24.25772967 38.71914671 24.19511499 36.72345053 24.1315918 34.7277832 C24.08830407 33.34176517 24.04662461 31.95569594 24.0065918 30.56958008 C23.94874041 28.57620702 23.88460849 26.58301935 23.8203125 24.58984375 C23.78365479 23.39061279 23.74699707 22.19138184 23.70922852 20.95581055 C23.626576 17.90318151 23.626576 17.90318151 22.50390625 14.953125 C20.90057834 14.87190576 19.29606599 14.81383366 17.69140625 14.765625 C16.79808594 14.73082031 15.90476562 14.69601562 14.984375 14.66015625 C12.52330705 14.75743474 12.52330705 14.75743474 10.88085938 16.05664062 C8.84974657 18.85410237 9.06702737 21.16217778 8.9921875 24.58984375 C8.95673828 25.88857422 8.92128906 27.18730469 8.88476562 28.52539062 C8.86166575 29.89713017 8.83888335 31.2688751 8.81640625 32.640625 C8.78323083 34.02412107 8.74874094 35.40758629 8.71289062 36.79101562 C8.63027895 40.17809433 8.56542053 43.56559746 8.50390625 46.953125 C1.90390625 46.953125 -4.69609375 46.953125 -11.49609375 46.953125 C-11.54507813 44.81070313 -11.5940625 42.66828125 -11.64453125 40.4609375 C-11.69852081 38.38908827 -11.75583607 36.31735596 -11.81347656 34.24560547 C-11.85179049 32.8042876 -11.88663918 31.36287332 -11.91796875 29.92138672 C-11.96356821 27.85088614 -12.02156819 25.78105067 -12.08203125 23.7109375 C-12.11345215 22.4645752 -12.14487305 21.21821289 -12.17724609 19.93408203 C-12.19291684 16.83770724 -12.19291684 16.83770724 -14.49609375 14.953125 C-19.56724713 14.30509388 -19.56724713 14.30509388 -24.08740234 16.06103516 C-26.16397145 18.85018777 -25.93256945 21.14371185 -26.0078125 24.58984375 C-26.04326172 25.88857422 -26.07871094 27.18730469 -26.11523438 28.52539062 C-26.13833425 29.89713017 -26.16111665 31.2688751 -26.18359375 32.640625 C-26.21676917 34.02412107 -26.25125906 35.40758629 -26.28710938 36.79101562 C-26.36972105 40.17809433 -26.43457947 43.56559746 -26.49609375 46.953125 C-33.09609375 46.953125 -39.69609375 46.953125 -46.49609375 46.953125 C-46.49609375 31.773125 -46.49609375 16.593125 -46.49609375 0.953125 C-39.89609375 0.953125 -33.29609375 0.953125 -26.49609375 0.953125 C-26.16609375 2.273125 -25.83609375 3.593125 -25.49609375 4.953125 C-24.95339844 4.60378906 -24.41070312 4.25445313 -23.8515625 3.89453125 C-23.13613281 3.43949219 -22.42070312 2.98445312 -21.68359375 2.515625 C-20.97589844 2.06316406 -20.26820313 1.61070312 -19.5390625 1.14453125 C-13.90872214 -2.13893684 -5.99594741 -2.51473225 0 0 Z " fill="#FAE801" transform="translate(505.49609375,655.046875)"/>
<path d="M0 0 C8.17883833 4.63302775 14.02628238 11.03511247 17.2734375 19.90234375 C21.201008 34.36294422 19.52275261 46.12775699 12.4609375 59.27734375 C7.51485779 65.2126394 2.35208349 70.16466333 -5.5234375 71.30859375 C-14.44101043 71.5916913 -18.93242788 69.20393029 -25.4375 63.3671875 C-33.29722904 55.2481273 -35.1811241 45.70381952 -35.2890625 34.77734375 C-35.30372559 33.85945068 -35.31838867 32.94155762 -35.33349609 31.99584961 C-35.17135584 21.08849863 -30.88792764 12.0325121 -23.18359375 4.3671875 C-16.59130974 -1.44554622 -8.28801013 -3.33657714 0 0 Z " fill="#FAEA01" transform="translate(757.7265625,240.09765625)"/>
<path d="M0 0 C4.09226822 2.40522387 6.71096841 5.49489581 9.359375 9.38671875 C9.79378906 9.99773437 10.22820313 10.60875 10.67578125 11.23828125 C15.48165918 19.64438131 14.73100545 31.92938059 12.44140625 41.0390625 C8.88272041 50.17187115 4.08254342 56.41290768 -4.92578125 60.50390625 C-10.97281273 62.47027908 -17.02078382 62.41369671 -22.890625 59.88671875 C-30.38546487 55.5096094 -34.94485493 48.48445901 -37.640625 40.38671875 C-38.20699747 37.09367691 -38.3092972 33.9110983 -38.265625 30.57421875 C-38.25797119 29.70128174 -38.25031738 28.82834473 -38.24243164 27.92895508 C-37.91784327 18.43144667 -34.65968785 11.39813939 -28.265625 4.38671875 C-19.55074743 -3.42991486 -10.73294051 -4.74982616 0 0 Z " fill="#FAEA01" transform="translate(823.640625,264.61328125)"/>
<path d="M0 0 C6.6 0 13.2 0 20 0 C20.33 7.26 20.66 14.52 21 22 C23.31 20.35 25.62 18.7 28 17 C33.75100653 15.08299782 40.84661457 14.73767106 46.52734375 17.01171875 C48.50058953 18.23535161 50.25320718 19.4726319 52 21 C52.52335938 21.42667969 53.04671875 21.85335937 53.5859375 22.29296875 C57.33692715 26.82109714 57.27653439 32.41532379 57.1953125 38.0234375 C57.1924826 38.76961334 57.18965271 39.51578918 57.18673706 40.28457642 C57.17561687 42.64821988 57.15052821 45.01147268 57.125 47.375 C57.11495962 48.98567158 57.10583562 50.59634915 57.09765625 52.20703125 C57.0774129 56.13828937 57.03825037 60.06871171 57 64 C50.4 64 43.8 64 37 64 C36.94392578 61.03773438 36.94392578 61.03773438 36.88671875 58.015625 C36.82106684 55.42706409 36.75461924 52.83852328 36.6875 50.25 C36.65366211 48.29707031 36.65366211 48.29707031 36.61914062 46.3046875 C36.58369141 45.05429687 36.54824219 43.80390625 36.51171875 42.515625 C36.48553467 41.36352539 36.45935059 40.21142578 36.43237305 39.02441406 C35.96475195 35.75344274 35.29990311 34.33318427 33 32 C30.83452197 31.37036063 30.83452197 31.37036063 28.5 31.5 C27.7265625 31.4896875 26.953125 31.479375 26.15625 31.46875 C23.89035463 31.82744116 23.89035463 31.82744116 22.3972168 33.62597656 C20.5802611 36.71318209 20.56945217 38.94410472 20.48828125 42.515625 C20.45283203 43.76601563 20.41738281 45.01640625 20.38085938 46.3046875 C20.35830078 47.60664062 20.33574219 48.90859375 20.3125 50.25 C20.27833984 51.56742188 20.24417969 52.88484375 20.20898438 54.2421875 C20.1264984 57.49449171 20.06157327 60.74723267 20 64 C13.4 64 6.8 64 0 64 C0 42.88 0 21.76 0 0 Z " fill="#FAE801" transform="translate(555,548)"/>
<path d="M0 0 C6.6 0 13.2 0 20 0 C20 10.23 20 20.46 20 31 C27.44777154 24.91317869 27.44777154 24.91317869 30.6953125 20.5859375 C33.56140017 17.66551642 36.03931752 17.56018574 40.0546875 17.4140625 C42.32886615 17.45372841 44.6026758 17.5249767 46.875 17.625 C48.62296875 17.66560547 48.62296875 17.66560547 50.40625 17.70703125 C53.27274172 17.77751875 56.13540655 17.87600539 59 18 C55.01227153 22.8596463 50.79147999 27.23027766 46.125 31.4375 C45.53203125 31.97826172 44.9390625 32.51902344 44.328125 33.07617188 C42.88878903 34.38782481 41.44488314 35.69446019 40 37 C40.77822211 40.66591076 41.86655033 42.17260687 44.625 44.75 C48.0884816 48.07717284 51.26784726 51.53015311 54.390625 55.17578125 C55.84536251 56.82471916 57.35053206 58.35489869 58.9375 59.875 C61 62 61 62 61 64 C37.81534932 66.08221388 37.81534932 66.08221388 31.99609375 61.46875 C29.19370192 58.62331272 27.06214912 55.41626421 25 52 C24.01 50.68 23.02 49.36 22 48 C21.67 53.28 21.34 58.56 21 64 C14.07 64 7.14 64 0 64 C0 42.88 0 21.76 0 0 Z " fill="#FAE701" transform="translate(430,548)"/>
<path d="M0 0 C5.22759865 4.13210923 7.58848859 8.19515327 9.6875 14.4921875 C10.1825 19.4421875 10.1825 19.4421875 10.6875 24.4921875 C-3.1725 24.8221875 -17.0325 25.1521875 -31.3125 25.4921875 C-26.81702656 30.08889611 -26.81702656 30.08889611 -21.0625 30.7421875 C-19.94101562 30.78085937 -19.94101562 30.78085937 -18.796875 30.8203125 C-16.17245074 30.6319573 -16.17245074 30.6319573 -13.6640625 28.98828125 C-9.02436421 26.9171805 -4.95081396 27.16523012 0.0625 27.3046875 C0.98933594 27.31822266 1.91617188 27.33175781 2.87109375 27.34570312 C5.14383998 27.38084869 7.41535847 27.43004618 9.6875 27.4921875 C7.86630179 33.52126833 5.45253759 36.57793071 0.25 40.1796875 C-6.517852 43.64614828 -12.58874026 43.85800598 -20.0625 43.8671875 C-21.09632813 43.89167969 -22.13015625 43.91617188 -23.1953125 43.94140625 C-31.62488573 43.97325602 -38.99136015 42.31461417 -45.75 37.0546875 C-51.38084347 31.42384403 -52.46699499 26.51074849 -52.6875 18.7421875 C-52.61750327 10.31633146 -50.28652271 6.53380163 -44.5625 0.6796875 C-40.63738443 -1.96221721 -36.85044175 -3.28669363 -32.3125 -4.5078125 C-31.70792969 -4.69214844 -31.10335937 -4.87648438 -30.48046875 -5.06640625 C-19.95510858 -7.20940751 -9.02768448 -5.88629427 0 0 Z " fill="#FAE701" transform="translate(277.3125,659.5078125)"/>
<path d="M0 0 C5.94949956 4.12822418 8.19537886 8.3373235 9.9140625 15.328125 C10.14111328 18.87670898 10.14111328 18.87670898 10.109375 22.57421875 C10.1065451 23.23019547 10.10371521 23.88617218 10.10079956 24.56202698 C10.08972234 26.63008909 10.06464313 28.69769673 10.0390625 30.765625 C10.02901652 32.17903015 10.01989352 33.59244217 10.01171875 35.00585938 C9.99153655 38.44692491 9.95236789 41.88702424 9.9140625 45.328125 C2.9840625 45.328125 -3.9459375 45.328125 -11.0859375 45.328125 C-11.0859375 44.008125 -11.0859375 42.688125 -11.0859375 41.328125 C-12.1584375 41.9675 -13.2309375 42.606875 -14.3359375 43.265625 C-21.31438395 47.42585269 -29.20117322 46.92686111 -37.0859375 46.328125 C-41.28101699 45.14973189 -43.4952728 43.1664878 -46.0234375 39.578125 C-47.79319885 34.16473733 -48.01854894 30.26795679 -45.5234375 25.078125 C-40.33082513 19.21979309 -33.57628882 16.71601724 -25.84667969 16.16992188 C-23.58963383 16.13287317 -21.34264893 16.15228055 -19.0859375 16.203125 C-17.92384766 16.21666016 -17.92384766 16.21666016 -16.73828125 16.23046875 C-14.85402907 16.25373112 -12.96993918 16.2895886 -11.0859375 16.328125 C-12.17378718 13.07829365 -12.17378718 13.07829365 -14.0859375 10.328125 C-18.11642483 10.01173103 -18.11642483 10.01173103 -22.0859375 10.328125 C-22.5305835 10.8238501 -22.97522949 11.3195752 -23.43334961 11.83032227 C-25.57714119 13.77332143 -26.68007118 13.67857868 -29.53515625 13.62109375 C-30.38271484 13.61142578 -31.23027344 13.60175781 -32.10351562 13.59179688 C-33.42512695 13.5540918 -33.42512695 13.5540918 -34.7734375 13.515625 C-35.66611328 13.50208984 -36.55878906 13.48855469 -37.47851562 13.47460938 C-39.68159916 13.43926579 -41.88346332 13.38992993 -44.0859375 13.328125 C-44.296875 7.6640625 -44.296875 7.6640625 -42.3984375 4.640625 C-32.67451807 -5.08329443 -11.99208499 -6.01722992 0 0 Z " fill="#FAE601" transform="translate(537.0859375,566.671875)"/>
<path d="M0 0 C5.70944175 2.87482454 8.99485369 6.44143253 11.44717407 12.37234497 C12.46687546 15.58751711 12.39586682 18.64305389 12.35546875 21.99609375 C12.35122391 22.69646255 12.34697906 23.39683136 12.34260559 24.11842346 C12.32597156 26.32936 12.2883518 28.53934457 12.25 30.75 C12.23493326 32.25975235 12.22124836 33.76951916 12.20898438 35.27929688 C12.17868466 38.95768243 12.11994268 42.6340408 12.0625 46.3125 C5.4625 46.3125 -1.1375 46.3125 -7.9375 46.3125 C-8.4325 44.3325 -8.4325 44.3325 -8.9375 42.3125 C-10.01 42.951875 -11.0825 43.59125 -12.1875 44.25 C-18.92359717 48.26575024 -26.27698424 47.93267858 -33.9375 47.3125 C-38.13497068 46.08208565 -40.51091129 43.80471774 -43.375 40.5 C-45.25857355 36.65750996 -45.53188596 34.5475 -44.9375 30.3125 C-43.18645058 25.38055017 -40.61282888 22.45378811 -35.83691406 20.08032227 C-29.35723902 17.46096776 -23.32865445 17.04159608 -16.4375 17.1875 C-15.20386719 17.20103516 -15.20386719 17.20103516 -13.9453125 17.21484375 C-11.94257917 17.23813135 -9.93999846 17.27399041 -7.9375 17.3125 C-8.9275 15.3325 -9.9175 13.3525 -10.9375 11.3125 C-12.39492463 11.23153197 -13.85362807 11.17332226 -15.3125 11.125 C-16.53066406 11.07279297 -16.53066406 11.07279297 -17.7734375 11.01953125 C-18.48757813 11.11621094 -19.20171875 11.21289062 -19.9375 11.3125 C-20.9275 12.7975 -20.9275 12.7975 -21.9375 14.3125 C-24.00048828 14.65307617 -24.00048828 14.65307617 -26.5078125 14.60546875 C-27.40371094 14.59580078 -28.29960938 14.58613281 -29.22265625 14.57617188 C-30.62837891 14.5384668 -30.62837891 14.5384668 -32.0625 14.5 C-33.00738281 14.48646484 -33.95226562 14.47292969 -34.92578125 14.45898438 C-37.26358779 14.42356306 -39.60026237 14.37417271 -41.9375 14.3125 C-41.25641802 9.11743852 -39.95461384 5.77623591 -35.9375 2.3125 C-26.00041344 -3.30979897 -10.67773713 -4.02443588 0 0 Z " fill="#FAE701" transform="translate(599.9375,475.6875)"/>
<path d="M0 0 C4.53563431 3.11645064 7.17994673 7.02455269 8.84765625 12.26953125 C9.01230556 14.87789499 9.0815854 17.37272623 9.04296875 19.9765625 C9.04013885 20.70195724 9.03730896 21.42735199 9.03439331 22.17472839 C9.02325424 24.47733493 8.99816191 26.77954352 8.97265625 29.08203125 C8.96261831 30.6490829 8.95349388 32.21614068 8.9453125 33.78320312 C8.92504225 37.6122535 8.88588335 41.44045021 8.84765625 45.26953125 C2.24765625 45.26953125 -4.35234375 45.26953125 -11.15234375 45.26953125 C-11.64734375 43.28953125 -11.64734375 43.28953125 -12.15234375 41.26953125 C-13.05984375 41.90890625 -13.96734375 42.54828125 -14.90234375 43.20703125 C-21.6416255 47.48388313 -29.40973309 46.86575367 -37.15234375 46.26953125 C-41.04217093 45.12068983 -43.35153439 43.14783829 -46.08984375 40.14453125 C-47.70621662 35.77081642 -48.01209183 31.86201892 -47.15234375 27.26953125 C-44.80224314 22.48921296 -41.49220237 20.10966423 -36.52734375 18.39453125 C-35.07628307 17.99230741 -33.6177417 17.61589804 -32.15234375 17.26953125 C-31.53278809 17.09607178 -30.91323242 16.9226123 -30.27490234 16.74389648 C-28.11908615 16.26209859 -26.24795979 16.15517052 -24.04296875 16.171875 C-23.28886719 16.17509766 -22.53476562 16.17832031 -21.7578125 16.18164062 C-20.98050781 16.19001953 -20.20320313 16.19839844 -19.40234375 16.20703125 C-18.60957031 16.21154297 -17.81679688 16.21605469 -17 16.22070312 C-15.05074867 16.2324456 -13.10153637 16.25037979 -11.15234375 16.26953125 C-12.24019343 13.0196999 -12.24019343 13.0196999 -14.15234375 10.26953125 C-15.83843341 10.19747614 -17.52735034 10.18567057 -19.21484375 10.20703125 C-20.13394531 10.21605469 -21.05304688 10.22507812 -22 10.234375 C-22.71027344 10.24597656 -23.42054688 10.25757813 -24.15234375 10.26953125 C-24.48234375 11.25953125 -24.81234375 12.24953125 -25.15234375 13.26953125 C-31.75234375 13.26953125 -38.35234375 13.26953125 -45.15234375 13.26953125 C-43.0135185 5.78364288 -41.38164078 3.42239594 -35.15234375 -0.73046875 C-24.80911671 -4.43668225 -9.94939121 -4.96592189 0 0 Z " fill="#FAE701" transform="translate(281.15234375,566.73046875)"/>
<path d="M0 0 C0.56074219 0.45761719 1.12148438 0.91523437 1.69921875 1.38671875 C5.94473062 6.45460581 6.68314897 11.54863549 6.60546875 17.99609375 C6.60122391 18.69646255 6.59697906 19.39683136 6.59260559 20.11842346 C6.57597156 22.32936 6.5383518 24.53934457 6.5 26.75 C6.48493326 28.25975235 6.47124836 29.76951916 6.45898438 31.27929688 C6.42868466 34.95768243 6.36994268 38.6340408 6.3125 42.3125 C-0.2875 42.3125 -6.8875 42.3125 -13.6875 42.3125 C-14.1825 40.3325 -14.1825 40.3325 -14.6875 38.3125 C-15.595 38.951875 -16.5025 39.59125 -17.4375 40.25 C-22.43131488 43.41915175 -26.72768632 43.5447044 -32.5625 43.625 C-33.25730469 43.65400391 -33.95210937 43.68300781 -34.66796875 43.71289062 C-39.86600233 43.77652004 -42.69441838 42.57312286 -46.6875 39.3125 C-49.44124623 36.05148473 -50.58237343 34.04838601 -51.1875 29.8125 C-50.45026844 24.65187911 -48.1333548 21.84598236 -44.625 18.125 C-35.39777498 12.43160584 -25.12538467 12.95889537 -14.6875 13.3125 C-15.3475 11.3325 -16.0075 9.3525 -16.6875 7.3125 C-18.14492463 7.23153197 -19.60362807 7.17332226 -21.0625 7.125 C-22.28066406 7.07279297 -22.28066406 7.07279297 -23.5234375 7.01953125 C-24.23757813 7.11621094 -24.95171875 7.21289062 -25.6875 7.3125 C-26.6775 8.7975 -26.6775 8.7975 -27.6875 10.3125 C-29.75048828 10.65307617 -29.75048828 10.65307617 -32.2578125 10.60546875 C-33.15371094 10.59580078 -34.04960938 10.58613281 -34.97265625 10.57617188 C-36.37837891 10.5384668 -36.37837891 10.5384668 -37.8125 10.5 C-38.75738281 10.48646484 -39.70226562 10.47292969 -40.67578125 10.45898438 C-43.01358779 10.42356306 -45.35026237 10.37417271 -47.6875 10.3125 C-46.99521 5.14195906 -45.83437742 1.64974897 -41.6875 -1.6875 C-30.23458128 -7.41395936 -10.09518049 -8.58913958 0 0 Z " fill="#FAE801" transform="translate(605.6875,659.6875)"/>
<path d="M0 0 C5.16639695 5.453419 6.30435967 10.35421987 6.1953125 17.70703125 C6.1924826 18.43242599 6.18965271 19.15782074 6.18673706 19.90519714 C6.17559799 22.20780368 6.15050566 24.51001227 6.125 26.8125 C6.11496206 28.37955165 6.10583763 29.94660943 6.09765625 31.51367188 C6.077386 35.34272225 6.0382271 39.17091896 6 43 C-0.6 43 -7.2 43 -14 43 C-14 41.68 -14 40.36 -14 39 C-15.0725 39.639375 -16.145 40.27875 -17.25 40.9375 C-24.22844645 45.09772769 -32.11523572 44.59873611 -40 44 C-44.19507949 42.82160689 -46.4093353 40.8383628 -48.9375 37.25 C-50.70726135 31.83661233 -50.93261144 27.93983179 -48.4375 22.75 C-43.24488763 16.89166809 -36.49035132 14.38789224 -28.76074219 13.84179688 C-26.50369633 13.80474817 -24.25671143 13.82415555 -22 13.875 C-20.83791016 13.88853516 -20.83791016 13.88853516 -19.65234375 13.90234375 C-17.76809157 13.92560612 -15.88400168 13.9614636 -14 14 C-15.08784968 10.75016865 -15.08784968 10.75016865 -17 8 C-21.03048733 7.68360603 -21.03048733 7.68360603 -25 8 C-25.444646 8.4957251 -25.88929199 8.9914502 -26.34741211 9.50219727 C-28.49120369 11.44519643 -29.59413368 11.35045368 -32.44921875 11.29296875 C-33.29677734 11.28330078 -34.14433594 11.27363281 -35.01757812 11.26367188 C-36.33918945 11.2259668 -36.33918945 11.2259668 -37.6875 11.1875 C-38.58017578 11.17396484 -39.47285156 11.16042969 -40.39257812 11.14648438 C-42.59566166 11.11114079 -44.79752582 11.06180493 -47 11 C-47.2109375 5.3359375 -47.2109375 5.3359375 -45.3125 2.3125 C-34.76695266 -8.23304734 -12.05937236 -8.14007634 0 0 Z " fill="#FAE801" transform="translate(444,659)"/>
<path d="M0 0 C4.54393869 2.76767175 7.14586701 7.03871424 8.71875 12.046875 C8.88371802 14.72698449 8.95253795 17.2968108 8.9140625 19.97265625 C8.9112326 20.72024704 8.90840271 21.46783783 8.90548706 22.23808289 C8.89434469 24.6120138 8.86925162 26.98555925 8.84375 29.359375 C8.83371249 30.9746039 8.82458799 32.58983876 8.81640625 34.20507812 C8.79613131 38.15260961 8.75697275 42.09931382 8.71875 46.046875 C2.11875 46.046875 -4.48125 46.046875 -11.28125 46.046875 C-11.33732422 43.08460938 -11.33732422 43.08460938 -11.39453125 40.0625 C-11.46018316 37.47393909 -11.52663076 34.88539828 -11.59375 32.296875 C-11.62758789 30.34394531 -11.62758789 30.34394531 -11.66210938 28.3515625 C-11.69755859 27.10117187 -11.73300781 25.85078125 -11.76953125 24.5625 C-11.79571533 23.41040039 -11.82189941 22.25830078 -11.84887695 21.07128906 C-12.31649805 17.80031774 -12.98134689 16.38005927 -15.28125 14.046875 C-17.44672803 13.41723563 -17.44672803 13.41723563 -19.78125 13.546875 C-20.5546875 13.5365625 -21.328125 13.52625 -22.125 13.515625 C-24.39089537 13.87431616 -24.39089537 13.87431616 -25.8840332 15.67285156 C-27.7009889 18.76005709 -27.71179783 20.99097972 -27.79296875 24.5625 C-27.82841797 25.81289063 -27.86386719 27.06328125 -27.90039062 28.3515625 C-27.92294922 29.65351562 -27.94550781 30.95546875 -27.96875 32.296875 C-28.00291016 33.61429688 -28.03707031 34.93171875 -28.07226562 36.2890625 C-28.1547516 39.54136671 -28.21967673 42.79410767 -28.28125 46.046875 C-35.21125 46.046875 -42.14125 46.046875 -49.28125 46.046875 C-49.28125 30.536875 -49.28125 15.026875 -49.28125 -0.953125 C-42.35125 -0.953125 -35.42125 -0.953125 -28.28125 -0.953125 C-27.95125 0.696875 -27.62125 2.346875 -27.28125 4.046875 C-26.81074219 3.69753906 -26.34023438 3.34820313 -25.85546875 2.98828125 C-25.23285156 2.53324219 -24.61023438 2.07820312 -23.96875 1.609375 C-23.35386719 1.15691406 -22.73898437 0.70445312 -22.10546875 0.23828125 C-15.90805767 -3.80927845 -6.55209718 -2.84640287 0 0 Z " fill="#FAE401" transform="translate(347.28125,565.953125)"/>
<path d="M0 0 C6.6 0 13.2 0 20 0 C20.04898438 1.81886719 20.09796875 3.63773437 20.1484375 5.51171875 C20.22347882 7.90366092 20.29902606 10.29558727 20.375 12.6875 C20.4059375 13.88568359 20.436875 15.08386719 20.46875 16.31835938 C20.50742187 17.47529297 20.54609375 18.63222656 20.5859375 19.82421875 C20.63306885 21.41882935 20.63306885 21.41882935 20.68115234 23.0456543 C21.00714706 26.06622248 21.63327649 28.29357173 23 31 C25.98997825 32.49498913 28.70042775 32.11577446 32 32 C32.99 31.67 33.98 31.34 35 31 C36.31304506 27.71810748 36.20096782 24.19926033 36.31640625 20.703125 C36.37924805 18.89521484 36.37924805 18.89521484 36.44335938 17.05078125 C36.48267578 15.79652344 36.52199219 14.54226563 36.5625 13.25 C36.60568359 11.98027344 36.64886719 10.71054687 36.69335938 9.40234375 C36.79939655 6.2683562 36.90019848 3.13419232 37 0 C43.6 0 50.2 0 57 0 C57 14.85 57 29.7 57 45 C50.73 45 44.46 45 38 45 C38 43.35 38 41.7 38 40 C37.07767578 40.63228516 37.07767578 40.63228516 36.13671875 41.27734375 C35.32847656 41.82519531 34.52023437 42.37304688 33.6875 42.9375 C32.48673828 43.75541016 32.48673828 43.75541016 31.26171875 44.58984375 C25.68323807 48.06796383 19.35207519 47.52558542 13 47 C8.15946838 45.74055133 5.13649392 43.74574515 2.5625 39.4375 C0.33539927 34.53787839 -0.13633836 30.78214527 -0.09765625 25.48828125 C-0.0962413 24.76005661 -0.09482635 24.03183197 -0.09336853 23.28153992 C-0.08777659 20.95848461 -0.07522562 18.63552612 -0.0625 16.3125 C-0.05748396 14.73632952 -0.05292123 13.16015752 -0.04882812 11.58398438 C-0.03866121 7.72258905 -0.01908436 3.86140275 0 0 Z " fill="#FAEA01" transform="translate(492,476)"/>
<path d="M0 0 C2.83498189 1.7654977 4.81282574 3.65953698 6.95703125 6.21875 C7.45203125 6.71375 7.45203125 6.71375 7.95703125 7.21875 C7.99766957 8.88492115 7.99975225 10.55263095 7.95703125 12.21875 C4.83220563 12.30562496 1.70768879 12.35909568 -1.41796875 12.40625 C-2.30742187 12.43138672 -3.196875 12.45652344 -4.11328125 12.48242188 C-4.9640625 12.49208984 -5.81484375 12.50175781 -6.69140625 12.51171875 C-7.86968994 12.53528442 -7.86968994 12.53528442 -9.07177734 12.55932617 C-9.72227051 12.44693604 -10.37276367 12.3345459 -11.04296875 12.21875 C-11.70296875 11.22875 -12.36296875 10.23875 -13.04296875 9.21875 C-16.12662746 8.9685343 -16.12662746 8.9685343 -19.04296875 9.21875 C-18.71296875 10.53875 -18.38296875 11.85875 -18.04296875 13.21875 C-16.90859375 13.44949219 -15.77421875 13.68023438 -14.60546875 13.91796875 C4.07449052 17.89493891 4.07449052 17.89493891 8.95703125 25.21875 C9.5436708 29.71378031 9.50671155 33.88794506 7.76953125 38.09375 C3.52002871 43.07592539 -0.81804975 45.8559025 -7.44506836 46.42504883 C-10.25135598 46.523986 -13.04751222 46.54069168 -15.85546875 46.53125 C-16.80228516 46.54736328 -17.74910156 46.56347656 -18.72460938 46.58007812 C-26.30285069 46.58529371 -32.82719103 45.56358792 -39.04296875 41.03125 C-41.04296875 38.21875 -41.04296875 38.21875 -42.04296875 30.21875 C-35.44296875 30.21875 -28.84296875 30.21875 -22.04296875 30.21875 C-21.38296875 31.53875 -20.72296875 32.85875 -20.04296875 34.21875 C-17.73296875 34.21875 -15.42296875 34.21875 -13.04296875 34.21875 C-13.37296875 32.89875 -13.70296875 31.57875 -14.04296875 30.21875 C-15.26113281 29.91582031 -16.47929687 29.61289062 -17.734375 29.30078125 C-19.35827481 28.87837957 -20.98196169 28.4551587 -22.60546875 28.03125 C-23.40533203 27.83466797 -24.20519531 27.63808594 -25.02929688 27.43554688 C-31.15963132 25.80913161 -36.41851495 23.52784392 -40.48046875 18.40625 C-41.7447547 13.48958242 -41.61798186 9.68503343 -39.79296875 5.03125 C-30.0443609 -4.93891712 -12.24537416 -5.84106433 0 0 Z " fill="#FAE801" transform="translate(381.04296875,656.78125)"/>
<path d="M0 0 C5.97222096 3.38388505 9.34116616 7.78854803 12.20703125 13.9296875 C14.30074721 23.63691602 12.58667887 32.78774973 7.64453125 41.3671875 C4.22151663 46.47585584 -0.37740164 50.75730966 -6.10546875 53.1171875 C-11.72684534 53.92696704 -16.77903477 53.64237472 -21.57421875 50.453125 C-26.51090983 46.1461139 -29.74861165 40.47828346 -30.44140625 33.953125 C-30.57387767 22.21615704 -28.5575309 13.58848506 -20.24609375 5 C-14.4204112 -0.12404925 -7.55249116 -3.16672171 0 0 Z " fill="#FAE901" transform="translate(872.10546875,301.8828125)"/>
<path d="M0 0 C6.93 0 13.86 0 21 0 C21 15.18 21 30.36 21 46 C28.26 46 35.52 46 43 46 C43 51.94 43 57.88 43 64 C28.81 64 14.62 64 0 64 C0 42.88 0 21.76 0 0 Z " fill="#FAE901" transform="translate(187,548)"/>
<path d="M0 0 C4.45328189 3.31407025 6.94709672 7.77879017 8.6875 13 C9.53336197 25.09166618 8.91170011 35.27793366 0.875 45 C-3.51042659 49.54815114 -7.05225782 51.53425112 -13.375 52.4375 C-18.18717762 51.72079269 -21.08088119 49.1964297 -24.5 45.875 C-29.26276638 38.32026712 -30.34620982 29.78072611 -29.3125 21 C-27.2101438 12.78061869 -22.79471899 6.16565363 -16.5625 0.5 C-10.99552472 -2.0693732 -5.80201539 -1.75155181 0 0 Z " fill="#FAE901" transform="translate(912.3125,348)"/>
<path d="M0 0 C5.54568628 4.03672138 8.33880432 9.21777638 10.375 15.6875 C11.56310084 23.58975211 10.95305697 30.98949052 6.375 37.6875 C3.2953709 41.67769251 0.47124299 44.22542493 -4.53125 45.328125 C-10.91753696 45.68291872 -15.18862842 44.65162432 -20.0078125 40.40234375 C-27.11583419 32.8650937 -28.18886213 25.49552062 -27.93359375 15.58203125 C-27.38484254 8.65665201 -25.1693338 4.88210867 -20.125 0.25 C-13.9224226 -4.92351342 -6.67536428 -3.82735895 0 0 Z " fill="#FD1802" transform="translate(747.625,432.3125)"/>
<path d="M0 0 C4.14798495 1.79117532 6.2414131 3.83492576 8 8 C8.7312839 12.39662148 8.5525924 15.13427191 6.125 18.9375 C3.12954073 21.84485752 1.3349309 22.21407848 -2.75 22.375 C-3.59046875 22.42398438 -4.4309375 22.47296875 -5.296875 22.5234375 C-8 22 -8 22 -14 17 C-14 27.23 -14 37.46 -14 48 C-20.93 48 -27.86 48 -35 48 C-35 32.82 -35 17.64 -35 2 C-28.4 2 -21.8 2 -15 2 C-14.67 3.32 -14.34 4.64 -14 6 C-13.21625 5.195625 -12.4325 4.39125 -11.625 3.5625 C-7.6742692 -0.29416578 -5.48740163 -0.37202723 0 0 Z " fill="#FAE501" transform="translate(328,654)"/>
<path d="M0 0 C3.17625 -0.061875 6.3525 -0.12375 9.625 -0.1875 C11.1092749 -0.22846802 11.1092749 -0.22846802 12.62353516 -0.27026367 C17.83362791 -0.31923665 21.52879104 0.00740287 26 3 C29.37602083 7.72642917 29.74503496 12.38203366 29 18 C27.44392346 22.20140665 25.86950532 24.70248122 22 27 C19.17588235 27.94137255 17.47081968 28.11725382 14.55078125 28.09765625 C13.78677002 28.09515869 13.02275879 28.09266113 12.2355957 28.09008789 C11.27097412 28.08098389 10.30635254 28.07187988 9.3125 28.0625 C4.7028125 28.0315625 4.7028125 28.0315625 0 28 C0 18.76 0 9.52 0 0 Z " fill="#FD1702" transform="translate(434,476)"/>
<path d="M0 0 C4.06790532 0.73222296 6.43241457 2.56014811 9.125 5.5625 C12.41962246 10.39461294 12.87839643 14.88148369 12.125 20.5625 C10.6073474 24.66016202 9.10183459 27.5740827 5.125 29.5625 C1.6875 30.0625 1.6875 30.0625 -1.875 29.5625 C-6.22653135 26.29885149 -8.2212852 22.69771965 -9.875 17.5625 C-10.41738182 13.66180885 -10.28213174 10.45818984 -8.625 6.8125 C-3.92343305 0.76762821 -3.92343305 0.76762821 0 0 Z " fill="#FD1B02" transform="translate(773.875,436.4375)"/>
<path d="M0 0 C2.94176821 1.76506093 4.5524672 3.25411201 6.3125 6.1875 C7.68024245 11.78281002 7.91168308 16.27094588 5.1875 21.4375 C2.63955282 24.42223812 1.06211659 25.86146305 -2.875 26.375 C-6.76603288 25.90807605 -8.25334345 24.74665655 -11 22 C-13.01043479 18.78888887 -13.27065549 16.25929966 -13.25 12.5 C-13.25515625 11.5615625 -13.2603125 10.623125 -13.265625 9.65625 C-12.90079314 6.00793137 -11.84024042 3.87136044 -9.3125 1.25 C-5.99614456 -0.54262456 -3.71604179 -0.45635601 0 0 Z " fill="#FD1A02" transform="translate(804,443)"/>
<path d="M0 0 C3.4375 1.9375 3.4375 1.9375 6 5 C6.80416081 8.17643519 6.74844233 10.81624146 6 14 C4.0625 17.0625 4.0625 17.0625 1 19 C-3.20321305 19.77033976 -6.69246363 19.68645659 -10.5 17.6875 C-12.76666305 15.13750407 -13.00140965 12.98477579 -13.3125 9.625 C-12.94884973 5.40665686 -11.95115008 3.95115008 -9 1 C-5.85088521 -0.57455739 -3.47991184 -0.34799118 0 0 Z " fill="#FD1B02" transform="translate(395,578)"/>
<path d="M0 0 C3.6875 0.3125 3.6875 0.3125 6.0625 2.1875 C8.98081247 6.00375477 9.08176084 8.50251776 8.6875 13.3125 C7.33111105 16.5716905 5.95411469 19.67919266 2.6875 21.3125 C-0.1875 21.625 -0.1875 21.625 -3.3125 21.3125 C-5.61525556 19.4454009 -6.99073871 17.95602259 -8.3125 15.3125 C-8.82462418 9.16700978 -8.31189364 6.28144361 -4.3125 1.3125 C-3.3125 0.3125 -3.3125 0.3125 0 0 Z " fill="#FD1C02" transform="translate(823.3125,455.6875)"/>
<path d="M0 0 C3.57823381 1.30910993 4.69196491 2.61210428 6.5625 5.9375 C7.42520854 10.66932561 6.96335428 14.07412155 4.9375 18.4375 C2.5625 20.9375 2.5625 20.9375 -0.4375 22.0625 C-3.4375 21.9375 -3.4375 21.9375 -5.75 20.125 C-9.01841451 15.88816638 -8.95163793 12.15103899 -8.4375 6.9375 C-6.66722093 2.97544685 -4.74704997 -0.12171923 0 0 Z " fill="#FD1E02" transform="translate(842.4375,471.0625)"/>
<path d="M0 0 C13.39972685 -0.27070155 13.39972685 -0.27070155 18 2 C19 3 19 3 19.25 5.875 C19 9 19 9 17.625 10.8125 C14.04763996 13.42672464 11.25768872 13.10234262 6.875 13.0625 C5.59367188 13.05347656 4.31234375 13.04445313 2.9921875 13.03515625 C1.51105469 13.01775391 1.51105469 13.01775391 0 13 C0 8.71 0 4.42 0 0 Z " fill="#FD2202" transform="translate(179,676)"/>
<path d="M0 0 C12.62807845 -0.41631028 12.62807845 -0.41631028 17 3 C17.625 6 17.625 6 17 9 C11.63822961 13.18979872 6.53211142 12.21534433 0 12 C0 8.04 0 4.08 0 0 Z " fill="#FD2402" transform="translate(179,651)"/>
<path d="M0 0 C3.0625 1.25 3.0625 1.25 5 3 C5.33 4.32 5.66 5.64 6 7 C-1.26 7 -8.52 7 -16 7 C-12.25193836 -0.49612327 -7.85427175 -0.94047914 0 0 Z " fill="#FD1A02" transform="translate(261,667)"/>
<path d="M0 0 C1.77503906 0.03480469 1.77503906 0.03480469 3.5859375 0.0703125 C5.36871094 0.09738281 5.36871094 0.09738281 7.1875 0.125 C8.10273437 0.14820313 9.01796875 0.17140625 9.9609375 0.1953125 C10.2109375 2.5078125 10.2109375 2.5078125 9.9609375 5.1953125 C7.85438934 7.44393019 6.50233367 8.11688595 3.453125 8.55859375 C2.15761719 8.53345703 2.15761719 8.53345703 0.8359375 8.5078125 C-0.03289063 8.50394531 -0.90171875 8.50007812 -1.796875 8.49609375 C-4.0390625 8.1953125 -4.0390625 8.1953125 -6.0390625 6.1953125 C-5.52033517 2.04549385 -4.3491405 0.27950774 0 0 Z " fill="#FD2902" transform="translate(582.0390625,681.8046875)"/>
<path d="M0 0 C1.18851563 0.00902344 2.37703125 0.01804687 3.6015625 0.02734375 C4.51679687 0.03894531 5.43203125 0.05054688 6.375 0.0625 C6.125 2.9375 6.125 2.9375 5.375 6.0625 C2.64255953 8.15696979 0.12755853 8.33509236 -3.25 8.3125 C-4.02601563 8.31765625 -4.80203125 8.3228125 -5.6015625 8.328125 C-7.625 8.0625 -7.625 8.0625 -9.625 6.0625 C-9.375 3.5 -9.375 3.5 -8.625 1.0625 C-5.74084117 -0.37957941 -3.20778472 -0.03144887 0 0 Z " fill="#FD2602" transform="translate(585.625,501.9375)"/>
<path d="M0 0 C1.08667969 0.01804687 2.17335938 0.03609375 3.29296875 0.0546875 C4.54013672 0.08949219 4.54013672 0.08949219 5.8125 0.125 C6.17226505 4.5621023 6.17226505 4.5621023 4.6640625 6.921875 C2.09539472 8.59096714 0.22497598 8.45514448 -2.8125 8.375 C-3.79476563 8.35953125 -4.77703125 8.3440625 -5.7890625 8.328125 C-8.1875 8.125 -8.1875 8.125 -9.1875 7.125 C-9.4375 4.6875 -9.4375 4.6875 -9.1875 2.125 C-5.66070901 -0.22619399 -4.15870515 -0.08943452 0 0 Z " fill="#FD2502" transform="translate(424.1875,681.875)"/>
<path d="M0 0 C1.77503906 0.03480469 1.77503906 0.03480469 3.5859375 0.0703125 C5.36871094 0.09738281 5.36871094 0.09738281 7.1875 0.125 C8.10273438 0.14820313 9.01796875 0.17140625 9.9609375 0.1953125 C10.2109375 2.5078125 10.2109375 2.5078125 9.9609375 5.1953125 C7.83764198 7.47203963 6.50658684 8.12490613 3.41796875 8.5234375 C2.54527344 8.49765625 1.67257812 8.471875 0.7734375 8.4453125 C-0.54720703 8.42210937 -0.54720703 8.42210937 -1.89453125 8.3984375 C-4.0390625 8.1953125 -4.0390625 8.1953125 -5.0390625 7.1953125 C-5.2265625 4.7578125 -5.2265625 4.7578125 -5.0390625 2.1953125 C-3.0390625 0.1953125 -3.0390625 0.1953125 0 0 Z " fill="#FD2402" transform="translate(260.0390625,591.8046875)"/>
<path d="M0 0 C1.08667969 0.01804687 2.17335938 0.03609375 3.29296875 0.0546875 C4.54013672 0.08949219 4.54013672 0.08949219 5.8125 0.125 C6.0625 2.4375 6.0625 2.4375 5.8125 5.125 C3.68920448 7.40172713 2.35814934 8.05459363 -0.73046875 8.453125 C-1.60316406 8.42734375 -2.47585938 8.4015625 -3.375 8.375 C-4.69564453 8.35179687 -4.69564453 8.35179687 -6.04296875 8.328125 C-8.1875 8.125 -8.1875 8.125 -9.1875 7.125 C-9.4375 4.6875 -9.4375 4.6875 -9.1875 2.125 C-5.66070901 -0.22619399 -4.15870515 -0.08943452 0 0 Z " fill="#FD2202" transform="translate(520.1875,591.875)"/>
</svg>
